# xmcd CD database file
#
# Track frame offsets:
#	150
#	34890
#	57368
#	75975
#	95351
#	122495
#	146539
#	172341
#	192999
#
# Disc length: 2915 seconds
#
# Revision: 0
# Processed by: cddbd v1.5.2PL0 Copyright (c) Steve Scherf et al.
# Submitted via: CDex 1.70beta2
#
DISCID=760b6109
DTITLE=曽我部　恵一 - LOVE CITY
DYEAR=2006
DGENRE=ろっく
TTITLE0=土曜の夜に
TTITLE1=３つの部屋
TTITLE2=恋人たちのロック
TTITLE3=アップルソング
TTITLE4=ラブ　セレナーデ
TTITLE5=幻の季節
TTITLE6=どこかでだれかが
TTITLE7=東京　2006　冬
TTITLE8=WINDY
EXTD=YEAR: 2006
EXTT0=
EXTT1=
EXTT2=
EXTT3=
EXTT4=
EXTT5=
EXTT6=
EXTT7=
EXTT8=
PLAYORDER=
